<svg width="450" height="450" viewBox="0 0 450 450" xmlns="http://www.w3.org/2000/svg"><g fill="none" fill-rule="evenodd"><path fill="#7FB7CD" d="M0 0h450v450H0z"/><path fill="#FFFCFC" d="M102.094 114.234h266.027v286.078H102.094z"/><path d="M382.035 161.69h-42.828c-11.828 0-21.414-9.447-21.414-21.104v-21.103h85.656v21.103c0 11.656-9.587 21.104-21.414 21.104" fill="#D3C390" fill-rule="nonzero"/><path fill="#B5A576" fill-rule="nonzero" d="M18 429h414v-28.138H18z"/><path d="M132.207 400.862H46.551V379.76c0-11.656 9.586-21.104 21.414-21.104h42.828c11.828 0 21.414 9.447 21.414 21.104v21.103zM110.793 161.69H67.965c-11.827 0-21.414-9.447-21.414-21.104v-21.103h85.656v21.103c0 11.656-9.586 21.104-21.414 21.104" fill="#D3C390" fill-rule="nonzero"/><path fill="#F9EBB0" fill-rule="nonzero" d="M67.965 358.655h42.828V161.69H67.965z"/><path d="M403.45 400.862h-85.657V379.76c0-11.656 9.586-21.104 21.414-21.104h42.828c11.828 0 21.414 9.447 21.414 21.104v21.103z" fill="#D3C390" fill-rule="nonzero"/><path d="M382.035 358.655H360.62c11.827 0 21.414 9.447 21.414 21.104v21.103h21.414V379.76c0-11.656-9.587-21.104-21.414-21.104" fill="#9E926C" fill-rule="nonzero"/><path d="M339.207 358.655h21.414c-11.828 0-21.414 9.447-21.414 21.104v21.103h-21.414V379.76c0-11.656 9.586-21.104 21.414-21.104m0-196.966h21.414c-11.828 0-21.414-9.447-21.414-21.104v-21.103h-21.414v21.103c0 11.656 9.586 21.104 21.414 21.104" fill="#DCCFA6" fill-rule="nonzero"/><path d="M110.793 358.655H89.38c11.828 0 21.414 9.447 21.414 21.104v21.103h21.414V379.76c0-11.656-9.586-21.104-21.414-21.104" fill="#9E926C" fill-rule="nonzero"/><path d="M67.965 358.655H89.38c-11.827 0-21.414 9.447-21.414 21.104v21.103H46.551V379.76c0-11.656 9.587-21.104 21.414-21.104m0-196.966H89.38c-11.827 0-21.414-9.447-21.414-21.104v-21.103H46.551v21.103c0 11.656 9.587 21.104 21.414 21.104" fill="#DCCFA6" fill-rule="nonzero"/><path d="M110.793 161.69H89.38c11.828 0 21.414-9.447 21.414-21.104v-21.103h21.414v21.103c0 11.656-9.586 21.104-21.414 21.104" fill="#9E926C" fill-rule="nonzero"/><path fill="#F9EBB0" fill-rule="nonzero" d="M339.207 358.655h42.828V161.69h-42.828z"/><path fill="#D3C390" fill-rule="nonzero" d="M225 21l207 70.345H18z"/><path fill="#DCCFA6" fill-rule="nonzero" d="M225 21l14.276 4.847L46.55 91.345H18z"/><path fill="#B5A576" fill-rule="nonzero" d="M32.276 119.483h385.448V91.345H32.276z"/><path fill="#BBB084" fill-rule="nonzero" d="M367.759 358.655h14.276V161.69h-14.276z"/><path fill="#FCF3D0" fill-rule="nonzero" d="M67.965 358.655h14.276V161.69H67.965z"/><path fill="#BBB084" fill-rule="nonzero" d="M96.517 358.655h14.276V161.69H96.517z"/><path d="M396.31 119.483h21.414V91.345H396.31zM410.586 429H432v-28.138h-21.414z" fill="#887C59" fill-rule="nonzero"/><path d="M32.276 119.483H53.69V91.345H32.276zM46.551 429h21.414v-28.138H46.551z" fill="#C4B791" fill-rule="nonzero"/><path fill="#9E926C" fill-rule="nonzero" d="M225 21l-14.276 4.847L403.45 91.345H432z"/><path d="M136.698 177.57c1.253 3.272 2.722 5.88 4.409 7.824 2.939 3.39 6.588 5.086 10.948 5.086 2.361 0 4.403-.735 6.125-2.205 1.722-1.47 2.584-3.521 2.584-6.153 0-2.371-.868-4.434-2.602-6.188-1.132-1.115-3.517-2.786-7.155-5.015l-6.323-3.877c-1.903-1.185-3.42-2.383-4.553-3.592-2.096-2.3-3.144-4.837-3.144-7.61 0-3.676 1.241-6.735 3.722-9.177 2.481-2.442 5.77-3.663 9.865-3.663 1.686 0 3.715.409 6.088 1.227 2.373.818 3.728 1.227 4.065 1.227.916 0 1.548-.213 1.897-.64.35-.427.62-1.032.813-1.814h1.518l1.626 15.507h-1.77c-1.205-4.671-3.138-7.932-5.8-9.781-2.662-1.85-5.294-2.774-7.895-2.774-2.024 0-3.788.587-5.294 1.76-1.505 1.174-2.258 2.804-2.258 4.89 0 1.874.578 3.474 1.734 4.802 1.156 1.351 2.951 2.762 5.384 4.232l6.504 3.948c4.071 2.466 6.938 4.73 8.6 6.793 1.638 2.087 2.457 4.552 2.457 7.398 0 3.817-1.463 7.006-4.39 9.567-2.927 2.56-6.667 3.84-11.22 3.84-2.288 0-4.679-.426-7.172-1.28-2.493-.853-3.92-1.28-4.282-1.28-.867 0-1.451.26-1.753.782a4.884 4.884 0 00-.596 1.672h-1.626L135 177.57h1.698zm44.518 13.49c3.01-.216 4.961-.664 5.853-1.345.89-.682 1.336-2.445 1.336-5.29v-32.668c0-2.701-.445-4.44-1.336-5.217-.892-.777-2.842-1.237-5.853-1.38v-1.363h21.892v1.362c-3.01.144-4.961.604-5.852 1.38-.891.778-1.337 2.517-1.337 5.218v32.668c0 2.845.446 4.608 1.337 5.29.89.681 2.842 1.13 5.852 1.344v1.327h-21.892v-1.327zm30-.062c3.083-.31 5.062-.997 5.936-2.06.874-1.062 1.31-3.527 1.31-7.394v-32.34l-1.019-1.182c-1.092-1.265-2.02-2.047-2.786-2.345-.764-.299-1.911-.472-3.44-.52v-1.36h12.781l28.732 35.311v-24.532c0-4.035-.607-6.66-1.821-7.879-.801-.787-2.573-1.3-5.317-1.54v-1.36h17.516v1.36c-2.84.287-4.734.967-5.68 2.042-.947 1.074-1.42 3.533-1.42 7.377v38.607h-1.275l-32.993-40.218v28.579c0 4.01.595 6.625 1.785 7.843.776.787 2.512 1.325 5.207 1.611v1.325h-17.516v-1.325zm60 .061c2.749-.286 4.53-.77 5.345-1.452.815-.681 1.223-2.408 1.223-5.182v-32.668c0-2.605-.402-4.309-1.204-5.11-.803-.8-2.59-1.297-5.364-1.488v-1.362h39.698l.255 10.542h-1.897c-.633-3.251-1.581-5.355-2.846-6.311-1.265-.956-4.087-1.434-8.465-1.434h-10.143c-1.095 0-1.77.173-2.025.52-.256.346-.384.998-.384 1.954v16.388h11.494c3.186 0 5.217-.466 6.093-1.399.876-.932 1.581-2.82 2.116-5.666h1.752v16.998h-1.752c-.56-2.845-1.277-4.728-2.153-5.648-.875-.92-2.894-1.38-6.056-1.38h-11.494v18.18c0 1.458.469 2.319 1.405 2.582.937.263 3.74.394 8.41.394 5.06 0 8.794-.543 11.202-1.631 2.408-1.088 4.573-3.724 6.494-7.907H315l-3.393 12.407h-40.39v-1.327zm-121.621 66.663c0 7.864 1.565 13.677 4.696 17.439 3.131 3.762 6.977 5.642 11.538 5.642 4.463 0 8.278-1.832 11.446-5.496 3.168-3.664 4.752-9.526 4.752-17.585 0-8.157-1.602-14.049-4.808-17.677-3.205-3.628-7.001-5.442-11.39-5.442-4.536 0-8.376 1.881-11.52 5.643-3.143 3.762-4.714 9.587-4.714 17.476zm-8.92.251c0-7.967 2.565-14.355 7.693-19.165 4.705-4.396 10.492-6.594 17.363-6.594 6.77 0 12.521 2.174 17.25 6.522 5.204 4.785 7.805 11.197 7.805 19.237 0 6.364-1.655 11.744-4.966 16.14-3.585 4.737-8.663 7.725-15.235 8.964 3.087 4.347 6.82 7.432 11.202 9.254 2.464 1.02 5.788 1.773 9.97 2.259v1.348h-3.137c-4.132 0-7.798-.328-10.996-.984-3.2-.656-6.105-1.651-8.72-2.987-2.613-1.312-5.034-3.134-7.262-5.466-2.228-2.331-3.466-3.558-3.715-3.68l-.971-.437c-4.232-1.919-7.505-4.105-9.82-6.558-4.307-4.542-6.46-10.493-6.46-17.853zm81.64-24.963v1.378c-2.93.194-4.83.671-5.698 1.432-.87.762-1.304 2.508-1.304 5.24v23.75c0 3.892.547 6.925 1.64 9.1 2.035 3.965 5.896 5.947 11.582 5.947 6.233 0 10.417-2.03 12.552-6.091 1.192-2.273 1.788-5.778 1.788-10.515v-19.327c0-4.037-.497-6.569-1.49-7.596-.993-1.027-2.88-1.674-5.661-1.94v-1.378h17.654v1.378c-2.954.314-4.885 1.01-5.791 2.085-.907 1.076-1.36 3.56-1.36 7.451v19.327c0 5.124-.807 9.125-2.42 12.001-2.98 5.294-8.642 7.941-16.985 7.941-8.244 0-13.855-2.61-16.835-7.832-1.614-2.804-2.42-6.502-2.42-11.095V241.06c0-2.707-.43-4.442-1.286-5.203-.856-.762-2.725-1.251-5.605-1.469v-1.378h21.64zm73.226 30.27l-8.976-20.711-8.862 20.71h17.838zm-33.244 19.117v-1.347c1.962-.218 3.433-.946 4.414-2.183.98-1.238 2.663-4.598 5.047-10.08l15.904-36.573h1.49l18.995 42.25c1.266 2.814 2.278 4.554 3.035 5.221.758.668 2.03 1.122 3.818 1.365v1.347h-19.405v-1.347c2.235-.194 3.675-.43 4.32-.71.646-.279.969-.964.969-2.056 0-.364-.124-1.006-.373-1.928a20.66 20.66 0 00-1.042-2.912l-3.166-7.169h-19.964c-1.987 4.877-3.172 7.855-3.557 8.934-.385 1.08-.577 1.935-.577 2.566 0 1.261.521 2.135 1.564 2.62.646.291 1.862.51 3.65.655v1.347h-15.122zM139.865 371.78c3.131-.315 5.14-1.013 6.028-2.092.888-1.08 1.332-3.585 1.332-7.515v-32.86l-1.036-1.202c-1.11-1.285-2.052-2.08-2.83-2.383-.776-.304-1.94-.48-3.494-.528v-1.383h12.981l29.181 35.881v-24.927c0-4.1-.616-6.769-1.85-8.006-.813-.8-2.613-1.322-5.399-1.565v-1.383h17.79v1.383c-2.885.291-4.808.983-5.77 2.074-.962 1.092-1.442 3.59-1.442 7.497V374h-1.295l-33.508-40.867v29.04c0 4.076.604 6.732 1.813 7.97.789.8 2.551 1.346 5.288 1.637v1.347h-17.79v-1.347zm70.54-23.251c0 7.864 1.566 13.677 4.697 17.439 3.131 3.761 6.977 5.642 11.538 5.642 4.463 0 8.278-1.832 11.446-5.496 3.168-3.665 4.752-9.526 4.752-17.585 0-8.157-1.603-14.05-4.808-17.677-3.205-3.628-7.001-5.442-11.39-5.442-4.536 0-8.376 1.881-11.52 5.643-3.143 3.762-4.715 9.587-4.715 17.476zm-8.108-.399c0-8.012 2.531-14.437 7.592-19.274 4.644-4.421 10.357-6.632 17.138-6.632 6.806 0 12.53 2.223 17.174 6.67 5.037 4.811 7.556 11.224 7.556 19.236 0 8.135-2.605 14.609-7.814 19.42-4.668 4.3-10.307 6.45-16.916 6.45-7.076 0-12.948-2.382-17.617-7.145-4.742-4.862-7.113-11.103-7.113-18.725zm60 23.65c3.132-.315 5.141-1.013 6.029-2.092.887-1.08 1.331-3.585 1.331-7.515v-32.86l-1.035-1.202c-1.11-1.285-2.053-2.08-2.83-2.383-.776-.304-1.941-.48-3.495-.528v-1.383h12.982l29.18 35.881v-24.927c0-4.1-.616-6.769-1.849-8.006-.813-.8-2.613-1.322-5.4-1.565v-1.383H315v1.383c-2.885.291-4.808.983-5.77 2.074-.961 1.092-1.442 3.59-1.442 7.497V374h-1.294l-33.508-40.867v29.04c0 4.076.604 6.732 1.812 7.97.789.8 2.552 1.346 5.289 1.637v1.347h-17.79v-1.347z" stroke="#F5F4F4" stroke-width="2" fill="#D1C6A7" fill-rule="nonzero"/><path d="M99.376 415.866l-2.246-5.17-2.217 5.17h4.463zM91 420.688v-.339c.499-.055.873-.238 1.123-.55.25-.312.677-1.158 1.284-2.54l4.045-9.213h.38l4.831 10.644c.322.709.58 1.147.772 1.315.193.168.517.283.972.344v.34H99.47v-.34c.569-.049.935-.108 1.1-.179.164-.07.246-.243.246-.518 0-.091-.032-.253-.095-.486a5.172 5.172 0 00-.265-.733l-.806-1.806h-5.078a82.883 82.883 0 00-.905 2.25c-.098.273-.147.488-.147.647 0 .318.133.538.398.66.164.073.474.128.929.165v.34H91zm24.606-12.422v.348c-.385.012-.66.046-.824.101-.29.104-.436.293-.436.568 0 .123.017.242.052.358.035.116.087.266.157.45l2.804 7.059 2.065-5.3-.919-2.264c-.17-.416-.426-.694-.767-.834-.202-.086-.508-.132-.92-.138v-.348h5.193v.348c-.486.006-.821.04-1.004.101-.29.104-.436.318-.436.642 0 .11.013.206.038.289.025.082.088.252.19.508l2.804 7.041 2.425-6.371a5.37 5.37 0 00.285-.963c.031-.159.047-.287.047-.385 0-.348-.17-.59-.512-.724-.19-.08-.473-.126-.852-.138v-.348h3.846v.348c-.347.05-.612.126-.796.23-.328.177-.574.482-.739.916l-2.065 5.583-.805 2.155-1.166 3.41h-.294l-.786-2.172-2.312-5.776-2.984 7.948h-.294l-1.393-3.905-1.667-4.392c-.689-1.809-1.167-2.92-1.436-3.332-.268-.413-.687-.634-1.255-.665v-.348h4.756zm14.985 12.083c.713-.073 1.176-.197 1.388-.371.211-.174.317-.616.317-1.325v-8.352c0-.666-.104-1.102-.313-1.306-.208-.205-.672-.332-1.392-.38v-.35h10.308l.066 2.696h-.492c-.165-.831-.41-1.369-.74-1.613-.328-.245-1.06-.367-2.197-.367h-2.634c-.285 0-.46.044-.526.133-.067.089-.1.255-.1.5v4.19h2.985c.827 0 1.355-.12 1.582-.358.227-.239.41-.722.55-1.449h.454v4.346h-.454c-.146-.728-.332-1.209-.56-1.444-.227-.236-.751-.353-1.572-.353h-2.985v4.648c0 .373.122.593.365.66.243.067.971.1 2.184.1 1.314 0 2.283-.138 2.909-.416.625-.278 1.187-.952 1.686-2.022h.54l-.881 3.172h-10.488v-.339zm18.698-.34c.992 0 1.822-.186 2.492-.558.67-.373 1.004-1.088 1.004-2.146 0-1.05-.391-1.769-1.175-2.154-.783-.385-1.78-.578-2.994-.578h-.563c-.08 0-.2-.003-.365-.009v4.676c0 .324.095.533.284.628.19.095.629.142 1.317.142zm-5.438.34c.783-.043 1.29-.16 1.52-.353.23-.192.346-.64.346-1.343v-8.352c0-.69-.115-1.135-.346-1.334-.23-.198-.737-.316-1.52-.353v-.348h5.438c1.554 0 2.787.241 3.7.724.913.483 1.369 1.314 1.369 2.494 0 .886-.319 1.558-.957 2.017-.36.263-.9.48-1.62.65.89.208 1.652.555 2.283 1.041.632.486.948 1.166.948 2.04 0 1.467-.701 2.475-2.104 3.025-.739.288-1.648.431-2.728.431h-6.33v-.339zm5.684-6.527c.651-.013 1.191-.113 1.62-.303.822-.367 1.232-1.024 1.232-1.971 0-1.119-.473-1.873-1.42-2.265-.525-.213-1.321-.32-2.389-.32-.404 0-.653.033-.748.1-.095.068-.142.251-.142.55v4.236l1.847-.027zm16.614-2.146c0-1.149-.511-1.937-1.534-2.365-.55-.232-1.245-.348-2.085-.348-.398 0-.643.038-.734.114-.092.077-.138.246-.138.509v4.896c.348.03.575.049.683.055.107.006.211.009.312.009.89 0 1.592-.122 2.104-.367.928-.446 1.392-1.28 1.392-2.503zm-8.081 8.673c.739-.067 1.2-.21 1.383-.426.183-.217.275-.714.275-1.49v-8.132c0-.654-.103-1.085-.308-1.293-.206-.207-.656-.339-1.35-.394v-.348h5.116c1.642 0 2.9.309 3.77.926.872.617 1.308 1.43 1.308 2.438 0 1.278-.483 2.204-1.45 2.778-.966.575-2.175.862-3.628.862-.209 0-.475-.004-.8-.014a28.453 28.453 0 00-.726-.013v3.41c0 .709.113 1.155.337 1.339.224.183.725.302 1.502.357v.34h-5.43v-.34zm18.65-4.483l-2.245-5.17-2.217 5.17h4.463zm-8.375 4.822v-.339c.5-.055.873-.238 1.123-.55.25-.312.677-1.158 1.284-2.54l4.045-9.213h.38l4.831 10.644c.323.709.58 1.147.773 1.315.192.168.516.283.97.344v.34h-4.936v-.34c.569-.049.935-.108 1.1-.179.164-.07.246-.243.246-.518 0-.091-.032-.253-.095-.486a5.172 5.172 0 00-.265-.733l-.806-1.806h-5.078a82.885 82.885 0 00-.905 2.25c-.098.273-.147.488-.147.647 0 .318.133.538.398.66.165.073.474.128.929.165v.34h-3.847zm22.204-12.642c.701 0 1.421.1 2.16.302.74.202 1.153.303 1.242.303a.997.997 0 00.52-.147.768.768 0 00.342-.458h.407l.18 4.217h-.445c-.26-.837-.597-1.513-1.014-2.026-.796-.966-1.866-1.449-3.212-1.449-1.358 0-2.468.52-3.33 1.559-.862 1.039-1.293 2.47-1.293 4.29 0 1.675.453 3.012 1.36 4.011.906 1 2.054 1.5 3.443 1.5 1.005 0 1.93-.233 2.776-.697.487-.263 1.02-.66 1.602-1.192l.36.348c-.43.526-.964.987-1.602 1.385A6.592 6.592 0 01190.51 421c-2.084 0-3.739-.645-4.964-1.934-1.131-1.192-1.696-2.68-1.696-4.465 0-1.828.597-3.362 1.79-4.602 1.257-1.302 2.893-1.953 4.908-1.953zm7.405 12.303c.79-.061 1.279-.197 1.469-.408.189-.21.284-.713.284-1.508v-8.132c0-.678-.106-1.117-.318-1.315-.211-.2-.69-.323-1.435-.372v-.348h5.533v.348c-.758.037-1.247.16-1.468.367-.222.208-.332.648-.332 1.32v3.85a80.286 80.286 0 002.928-2.511c1.358-1.253 2.037-2.057 2.037-2.412 0-.25-.116-.415-.346-.495-.23-.079-.558-.119-.98-.119v-.348h5.078v.302c-.62.062-1.107.18-1.464.358-.357.177-.851.565-1.483 1.164l-3.686 3.493 4.52 4.722c.84.874 1.411 1.42 1.715 1.636.303.217.748.36 1.336.426v.321h-5.932v-.339c.537-.018.9-.06 1.09-.124.19-.064.284-.19.284-.38 0-.104-.061-.263-.184-.477a4.185 4.185 0 00-.583-.742l-3.676-3.906-.654.54v3.393c0 .697.109 1.138.327 1.325.218.186.693.31 1.426.371v.34h-5.486v-.34zm26.87-.34c.992 0 1.823-.186 2.492-.558.67-.373 1.005-1.088 1.005-2.146 0-1.05-.392-1.769-1.175-2.154s-1.781-.578-2.994-.578h-.564c-.079 0-.2-.003-.365-.009v4.676c0 .324.095.533.285.628.19.095.628.142 1.317.142zm-5.438.34c.783-.043 1.29-.16 1.52-.353.231-.192.347-.64.347-1.343v-8.352c0-.69-.116-1.135-.346-1.334-.23-.198-.738-.316-1.52-.353v-.348h5.438c1.553 0 2.787.241 3.7.724.912.483 1.368 1.314 1.368 2.494 0 .886-.318 1.558-.956 2.017-.36.263-.9.48-1.62.65.89.208 1.651.555 2.283 1.041.631.486.947 1.166.947 2.04 0 1.467-.7 2.475-2.103 3.025-.74.288-1.649.431-2.729.431h-6.329v-.339zm5.685-6.527c.65-.013 1.19-.113 1.62-.303.821-.367 1.232-1.024 1.232-1.971 0-1.119-.474-1.873-1.421-2.265-.525-.213-1.32-.32-2.388-.32-.404 0-.654.033-.749.1-.094.068-.142.251-.142.55v4.236l1.848-.027zm10.996.66c0 1.974.4 3.433 1.203 4.377.802.945 1.787 1.417 2.956 1.417 1.143 0 2.12-.46 2.932-1.38.812-.92 1.218-2.391 1.218-4.414 0-2.048-.41-3.527-1.232-4.438-.821-.91-1.794-1.366-2.918-1.366-1.162 0-2.146.473-2.951 1.417-.806.944-1.208 2.406-1.208 4.387zm-2.199 0c0-2.005.651-3.612 1.952-4.823 1.194-1.106 2.663-1.659 4.406-1.659 1.75 0 3.221.556 4.415 1.669 1.295 1.204 1.942 2.808 1.942 4.813 0 2.035-.67 3.655-2.008 4.859-1.2 1.075-2.65 1.613-4.35 1.613-1.818 0-3.328-.596-4.528-1.788-1.22-1.216-1.829-2.777-1.829-4.684zm15.042 5.867c.79-.055 1.3-.17 1.535-.344.233-.174.35-.625.35-1.352v-8.352c0-.69-.117-1.135-.35-1.334-.234-.198-.746-.316-1.535-.353v-.348h5.741v.348c-.79.037-1.3.155-1.535.353-.233.199-.35.643-.35 1.334v8.352c0 .727.117 1.178.35 1.352.234.174.746.29 1.535.344v.34h-5.741v-.34zm7.66 0c.714-.073 1.177-.197 1.388-.371.212-.174.318-.616.318-1.325v-8.352c0-.666-.105-1.102-.313-1.306-.208-.205-.673-.332-1.393-.38v-.35h5.486v.35c-.714.036-1.192.149-1.435.338-.244.19-.365.596-.365 1.22v9.02c0 .209.036.372.109.491.072.12.232.194.478.225.146.018.299.03.46.037.16.006.462.009.905.009 1.724 0 2.89-.138 3.496-.413.606-.275 1.194-.978 1.762-2.108h.493l-.948 3.254h-10.44v-.339zm13.147 0c.713-.073 1.176-.197 1.388-.371.211-.174.317-.616.317-1.325v-8.352c0-.666-.104-1.102-.313-1.306-.208-.205-.672-.332-1.392-.38v-.35h10.308l.066 2.696h-.492c-.165-.831-.411-1.369-.74-1.613-.328-.245-1.06-.367-2.198-.367h-2.634c-.284 0-.459.044-.525.133-.067.089-.1.255-.1.5v4.19h2.985c.827 0 1.355-.12 1.582-.358.227-.239.41-.722.55-1.449h.454v4.346h-.455c-.145-.728-.331-1.209-.559-1.444-.227-.236-.751-.353-1.572-.353H273.4v4.648c0 .373.122.593.365.66.243.067.971.1 2.184.1 1.314 0 2.283-.138 2.909-.416.625-.278 1.187-.952 1.686-2.022h.54l-.881 3.172h-10.488v-.339zm16.784-6.087c1.396-.05 2.394-.19 2.994-.422 1.03-.41 1.544-1.18 1.544-2.31 0-1.088-.46-1.83-1.383-2.228-.493-.214-1.146-.321-1.961-.321-.55 0-.886.038-1.01.115-.122.076-.184.255-.184.536v4.63zm-3.638 6.087c.745-.067 1.21-.208 1.393-.422.183-.214.274-.712.274-1.494v-8.132c0-.66-.102-1.092-.308-1.297-.205-.205-.658-.335-1.36-.39v-.348h5.373c1.118 0 2.05.137 2.795.412 1.415.52 2.122 1.476 2.122 2.87 0 .935-.314 1.653-.942 2.154-.629.502-1.483.832-2.563.99l3.998 4.759c.246.293.493.507.739.641.246.135.562.22.947.257v.34h-3.126l-4.624-5.776-1.08.045v3.695c0 .697.11 1.138.327 1.325.218.186.693.31 1.426.371v.34h-5.391v-.34zm22.412-8.673c0-1.149-.511-1.937-1.535-2.365-.549-.232-1.244-.348-2.084-.348-.398 0-.643.038-.734.114-.092.077-.138.246-.138.509v4.896c.348.03.575.049.683.055.107.006.211.009.312.009.89 0 1.592-.122 2.104-.367.928-.446 1.392-1.28 1.392-2.503zm-8.081 8.673c.739-.067 1.2-.21 1.383-.426.183-.217.275-.714.275-1.49v-8.132c0-.654-.103-1.085-.308-1.293-.206-.207-.656-.339-1.35-.394v-.348h5.116c1.642 0 2.9.309 3.77.926.872.617 1.308 1.43 1.308 2.438 0 1.278-.483 2.204-1.45 2.778-.966.575-2.175.862-3.628.862-.209 0-.475-.004-.8-.014a28.453 28.453 0 00-.726-.013v3.41c0 .709.113 1.155.337 1.339.224.183.725.302 1.501.357v.34h-5.428v-.34zm11.99 0c.714-.073 1.176-.197 1.388-.371.212-.174.317-.616.317-1.325v-8.352c0-.666-.104-1.102-.312-1.306-.209-.205-.673-.332-1.393-.38v-.35h5.486v.35c-.714.036-1.192.149-1.436.338-.243.19-.364.596-.364 1.22v9.02c0 .209.036.372.109.491.072.12.232.194.478.225.145.018.298.03.46.037.16.006.462.009.904.009 1.725 0 2.89-.138 3.497-.413.606-.275 1.193-.978 1.762-2.108h.492l-.947 3.254h-10.441v-.339zm21.588-4.483l-2.245-5.17-2.217 5.17h4.462zm-8.375 4.822v-.339c.499-.055.873-.238 1.122-.55.25-.312.678-1.158 1.284-2.54l4.046-9.213h.379l4.832 10.644c.322.709.58 1.147.772 1.315.193.168.516.283.971.344v.34h-4.936v-.34c.568-.049.935-.108 1.099-.179.164-.07.246-.243.246-.518 0-.091-.031-.253-.094-.486a5.172 5.172 0 00-.266-.733l-.805-1.806h-5.078a82.884 82.884 0 00-.905 2.25c-.098.273-.147.488-.147.647 0 .318.133.538.398.66.164.073.474.128.928.165v.34h-3.846zm13.25-12.422h10.962l.105 3.19h-.465c-.227-1.002-.516-1.655-.867-1.957-.35-.303-1.088-.454-2.212-.454h-1.08v9.608c0 .727.117 1.178.35 1.352.234.174.746.29 1.535.344v.34h-5.656v-.34c.821-.061 1.333-.192 1.535-.394.202-.202.303-.71.303-1.522v-9.388h-1.08c-1.074 0-1.805.15-2.193.45-.389.299-.681.953-.877 1.961h-.473l.113-3.19zm12.985 12.083c.714-.073 1.177-.197 1.388-.371.212-.174.318-.616.318-1.325v-8.352c0-.666-.104-1.102-.313-1.306-.208-.205-.672-.332-1.393-.38v-.35h10.309l.066 2.696h-.493c-.164-.831-.41-1.369-.739-1.613-.328-.245-1.06-.367-2.198-.367h-2.634c-.284 0-.46.044-.525.133-.067.089-.1.255-.1.5v4.19h2.985c.827 0 1.354-.12 1.582-.358.227-.239.41-.722.55-1.449h.454v4.346h-.455c-.145-.728-.331-1.209-.559-1.444-.227-.236-.751-.353-1.572-.353h-2.985v4.648c0 .373.122.593.365.66.243.067.971.1 2.184.1 1.314 0 2.283-.138 2.908-.416.626-.278 1.188-.952 1.687-2.022h.54l-.881 3.172H348.63v-.339z" stroke="#B19E6A" fill-opacity=".25" fill="#000" fill-rule="nonzero"/></g></svg>