<?xml version="1.0" encoding="UTF-8"?>
<svg width="450px" height="450px" viewBox="0 0 450 450" version="1.1" xmlns="http://www.w3.org/2000/svg" xmlns:xlink="http://www.w3.org/1999/xlink">
    <!-- Generator: Sketch 56.3 (81716) - https://sketch.com -->
    <title>Artboard</title>
    <desc>Created with Sketch.</desc>
    <g id="Artboard" stroke="none" stroke-width="1" fill="none" fill-rule="evenodd">
        <rect fill="#7FB7CD" x="0" y="0" width="450" height="450"></rect>
        <g id="Group-3" transform="translate(18.000000, 21.000000)">
            <g id="Group-2">
                <rect id="Rectangle" fill="#FFFCFC" x="84.09375" y="93.234375" width="266.027344" height="286.078125"></rect>
                <path d="M364.034566,140.689875 L321.20659,140.689875 C309.379289,140.689875 299.792602,131.242922 299.792602,119.586234 L299.792602,98.4825938 L385.448555,98.4825938 L385.448555,119.586234 C385.448555,131.242125 375.861867,140.689875 364.034566,140.689875" id="Path" fill="#D3C390" fill-rule="nonzero"></path>
                <polygon id="Path" fill="#B5A576" fill-rule="nonzero" points="0 408 414 408 414 379.862344 0 379.862344"></polygon>
                <g id="Group" transform="translate(28.300781, 98.015625)" fill="#D3C390" fill-rule="nonzero">
                    <path d="M85.9066172,281.846719 L0.250664063,281.846719 L0.250664063,260.743078 C0.250664063,249.087187 9.83654297,239.639437 21.6646523,239.639437 L64.4926289,239.639437 C76.3199297,239.639437 85.9066172,249.086391 85.9066172,260.743078 L85.9066172,281.846719 L85.9066172,281.846719 Z" id="Path"></path>
                    <path d="M64.4926289,42.67425 L21.6646523,42.67425 C9.83735156,42.67425 0.250664063,33.2272969 0.250664063,21.5706094 L0.250664063,0.46696875 L85.9058086,0.46696875 L85.9058086,21.5706094 C85.9058086,33.2265 76.3199297,42.67425 64.4926289,42.67425" id="Path"></path>
                </g>
                <polygon id="Path" fill="#F9EBB0" fill-rule="nonzero" points="49.9654336 337.655063 92.7934102 337.655063 92.7934102 140.689875 49.9654336 140.689875"></polygon>
                <path d="M385.449363,379.862344 L299.79341,379.862344 L299.79341,358.758703 C299.79341,347.102813 309.379289,337.655063 321.207398,337.655063 L364.035375,337.655063 C375.862676,337.655063 385.449363,347.102016 385.449363,358.758703 L385.449363,379.862344 L385.449363,379.862344 Z" id="Path" fill="#D3C390" fill-rule="nonzero"></path>
                <path d="M364.034566,337.655063 L342.620578,337.655063 C354.447879,337.655063 364.034566,347.102016 364.034566,358.758703 L364.034566,379.862344 L385.448555,379.862344 L385.448555,358.758703 C385.448555,347.102813 375.861867,337.655063 364.034566,337.655063" id="Path" fill="#9E926C" fill-rule="nonzero"></path>
                <g id="Group" transform="translate(299.179688, 98.015625)" fill="#DCCFA6" fill-rule="nonzero">
                    <path d="M22.0269023,239.639437 L43.4408906,239.639437 C31.6135898,239.639437 22.0269023,249.086391 22.0269023,260.743078 L22.0269023,281.846719 L0.612914062,281.846719 L0.612914062,260.743078 C0.613722656,249.087187 10.1996016,239.639437 22.0269023,239.639437" id="Path"></path>
                    <path d="M22.0269023,42.67425 L43.4408906,42.67425 C31.6135898,42.67425 22.0269023,33.2272969 22.0269023,21.5706094 L22.0269023,0.46696875 L0.612914062,0.46696875 L0.612914062,21.5706094 C0.613722656,33.2265 10.1996016,42.67425 22.0269023,42.67425" id="Path"></path>
                </g>
                <g id="Group" transform="translate(71.156250, 337.078125)" fill="#9E926C" fill-rule="nonzero">
                    <path d="M21.6371602,0.5769375 L0.223171875,0.5769375 C12.0504727,0.5769375 21.6371602,10.0238906 21.6371602,21.6805781 L21.6371602,42.7842187 L43.0511484,42.7842187 L43.0511484,21.6805781 C43.0503398,10.0246875 33.4644609,0.5769375 21.6371602,0.5769375" id="Path"></path>
                </g>
                <g id="Group" transform="translate(28.300781, 98.015625)" fill="#DCCFA6" fill-rule="nonzero">
                    <path d="M21.6646523,239.639437 L43.0786406,239.639437 C31.2513398,239.639437 21.6646523,249.086391 21.6646523,260.743078 L21.6646523,281.846719 L0.250664063,281.846719 L0.250664063,260.743078 C0.250664063,249.087187 9.83735156,239.639437 21.6646523,239.639437" id="Path"></path>
                    <path d="M21.6646523,42.67425 L43.0786406,42.67425 C31.2513398,42.67425 21.6646523,33.2272969 21.6646523,21.5706094 L21.6646523,0.46696875 L0.250664063,0.46696875 L0.250664063,21.5706094 C0.250664063,33.2265 9.83735156,42.67425 21.6646523,42.67425" id="Path"></path>
                </g>
                <path d="M92.7934102,140.689875 L71.3794219,140.689875 C83.2067227,140.689875 92.7934102,131.242922 92.7934102,119.586234 L92.7934102,98.4825938 L114.207398,98.4825938 L114.207398,119.586234 C114.20659,131.242125 104.620711,140.689875 92.7934102,140.689875" id="Path" fill="#9E926C" fill-rule="nonzero"></path>
                <polygon id="Path" fill="#F9EBB0" fill-rule="nonzero" points="321.20659 337.655063 364.034566 337.655063 364.034566 140.689875 321.20659 140.689875"></polygon>
                <polygon id="Path" fill="#D3C390" fill-rule="nonzero" points="207 -7.81597009e-14 414 70.3449375 0 70.3449375"></polygon>
                <polygon id="Path" fill="#DCCFA6" fill-rule="nonzero" points="207 -7.81597009e-14 221.275723 4.84659375 28.5514453 70.3449375 -1.13686838e-13 70.3449375"></polygon>
                <polygon id="Path" fill="#B5A576" fill-rule="nonzero" points="14.2757227 98.4825938 399.724277 98.4825938 399.724277 70.3449375 14.2757227 70.3449375"></polygon>
                <polygon id="Path" fill="#BBB084" fill-rule="nonzero" points="349.758844 337.655063 364.034566 337.655063 364.034566 140.689875 349.758844 140.689875"></polygon>
                <polygon id="Path" fill="#FCF3D0" fill-rule="nonzero" points="49.9654336 337.655063 64.2411563 337.655063 64.2411563 140.689875 49.9654336 140.689875"></polygon>
                <polygon id="Path" fill="#BBB084" fill-rule="nonzero" points="78.5168789 337.655063 92.7934102 337.655063 92.7934102 140.689875 78.5168789 140.689875"></polygon>
                <g id="Group" transform="translate(377.613281, 70.125000)" fill="#887C59" fill-rule="nonzero">
                    <polygon id="Path" points="0.697007813 28.3575937 22.1109961 28.3575937 22.1109961 0.2199375 0.697007813 0.2199375"></polygon>
                    <polygon id="Path" points="14.9727305 337.875 36.3867187 337.875 36.3867187 309.737344 14.9727305 309.737344"></polygon>
                </g>
                <g id="Group" transform="translate(13.746094, 70.125000)" fill="#C4B791" fill-rule="nonzero">
                    <polygon id="Path" points="0.529628906 28.3575937 21.9436172 28.3575937 21.9436172 0.2199375 0.529628906 0.2199375"></polygon>
                    <polygon id="Path" points="14.8053516 337.875 36.2193398 337.875 36.2193398 309.737344 14.8053516 309.737344"></polygon>
                </g>
                <polygon id="Path" fill="#9E926C" fill-rule="nonzero" points="207 -7.81597009e-14 192.724277 4.84659375 385.448555 70.3449375 414 70.3449375"></polygon>
            </g>
            <path d="M118.698296,156.569554 C119.950946,159.841586 121.420379,162.449688 123.106639,164.393939 C126.045549,167.784523 129.695043,169.479789 134.055229,169.479789 C136.415993,169.479789 138.457541,168.744779 140.179935,167.274735 C141.902329,165.804692 142.763514,163.753775 142.763514,161.121924 C142.763514,158.750886 141.896307,156.688115 140.161868,154.933547 C139.029665,153.819159 136.644848,152.147603 133.007344,149.918827 L126.683901,146.0422 C124.780837,144.856682 123.263225,143.659326 122.131022,142.450097 C120.035242,140.15019 118.987368,137.613218 118.987368,134.839104 C118.987368,131.163996 120.227955,128.105403 122.709166,125.663235 C125.190377,123.221066 128.478534,122 132.573737,122 C134.259997,122 136.2895,122.408998 138.662309,123.227006 C141.035118,124.045014 142.390128,124.454012 142.72738,124.454012 C143.642778,124.454012 144.275116,124.240621 144.624412,123.813835 C144.973709,123.387048 145.244711,122.782442 145.437427,122 L146.955053,122 L148.581081,137.506508 L146.810517,137.506508 C145.606046,132.835564 143.672898,129.575436 141.011016,127.726027 C138.349135,125.876618 135.717404,124.951927 133.115746,124.951927 C131.092234,124.951927 129.32771,125.53875 127.822121,126.712414 C126.316532,127.886077 125.563749,129.516141 125.563749,131.602654 C125.563749,133.475774 126.141886,135.0762 127.298179,136.403981 C128.454471,137.755472 130.249107,139.166219 132.682139,140.636262 L139.186251,144.58402 C143.257365,147.049899 146.123963,149.314206 147.786134,151.377008 C149.424215,153.463521 150.243243,155.929363 150.243243,158.774608 C150.243243,162.591979 148.779832,165.780976 145.852967,168.341697 C142.926102,170.902418 139.186274,172.182759 134.633373,172.182759 C132.344877,172.182759 129.954037,171.755978 127.460781,170.902405 C124.967526,170.048831 123.540249,169.622051 123.178907,169.622051 C122.311688,169.622051 121.727528,169.882861 121.42641,170.404489 C121.125292,170.926118 120.926557,171.483303 120.8302,172.076062 L119.204172,172.076062 L117,156.569554 L118.698296,156.569554 Z M163.216216,170.059405 C166.226667,169.844247 168.177411,169.396007 169.068504,168.714672 C169.959598,168.033338 170.405138,166.270262 170.405138,163.425393 L170.405138,130.757366 C170.405138,128.055935 169.959598,126.316766 169.068504,125.539805 C168.177411,124.762845 166.226667,124.302652 163.216216,124.159214 L163.216216,122.796552 L185.108108,122.796552 L185.108108,124.159214 C182.097657,124.302652 180.146914,124.762845 179.25582,125.539805 C178.364727,126.316766 177.919187,128.055935 177.919187,130.757366 L177.919187,163.425393 C177.919187,166.270262 178.364727,168.033338 179.25582,168.714672 C180.146914,169.396007 182.097657,169.844247 185.108108,170.059405 L185.108108,171.386207 L163.216216,171.386207 L163.216216,170.059405 Z M193.216216,169.998162 C196.299399,169.687781 198.277947,169.001371 199.15192,167.938911 C200.025893,166.876452 200.462873,164.411344 200.462873,160.543515 L200.462873,128.204323 L199.443243,127.022493 C198.350777,125.757092 197.422194,124.975181 196.657468,124.676737 C195.892742,124.378294 194.745669,124.205199 193.216216,124.157448 L193.216216,122.796552 L205.998009,122.796552 L234.72973,158.108227 L234.72973,133.576282 C234.72973,129.541324 234.122813,126.915059 232.908962,125.697409 C232.10782,124.909518 230.335623,124.396203 227.592319,124.157448 L227.592319,122.796552 L245.108108,122.796552 L245.108108,124.157448 C242.267696,124.443954 240.374116,125.124395 239.427312,126.198792 C238.480507,127.273189 238.007112,129.732328 238.007112,133.576282 L238.007112,172.182759 L236.732575,172.182759 L203.740256,131.964695 L203.740256,160.543515 C203.740256,164.554597 204.335034,167.168924 205.524609,168.386574 C206.301474,169.174466 208.037255,169.711656 210.732006,169.998162 L210.732006,171.323245 L193.216216,171.323245 L193.216216,169.998162 Z M253.216216,170.059405 C255.964879,169.772527 257.746618,169.288428 258.561486,168.607094 C259.376355,167.925759 259.783784,166.198543 259.783784,163.425393 L259.783784,130.757366 C259.783784,128.151561 259.382436,126.448251 258.57973,125.647384 C257.777023,124.846517 255.989203,124.350465 253.216216,124.159214 L253.216216,122.796552 L292.913514,122.796552 L293.168919,133.339252 L291.271622,133.339252 C290.639186,130.087972 289.690547,127.984234 288.425676,127.027976 C287.160804,126.071717 284.339211,125.593595 279.960811,125.593595 L269.817568,125.593595 C268.722967,125.593595 268.047974,125.766914 267.792568,126.113558 C267.537161,126.460202 267.409459,127.111643 267.409459,128.067902 L267.409459,144.455704 L278.902703,144.455704 C282.089205,144.455704 284.120266,143.989535 284.995946,143.057183 C285.871626,142.124831 286.577024,140.236248 287.112162,137.391378 L288.863514,137.391378 L288.863514,154.388792 L287.112162,154.388792 C286.5527,151.543923 285.83514,149.661316 284.959459,148.740917 C284.083779,147.820518 282.064881,147.360326 278.902703,147.360326 L267.409459,147.360326 L267.409459,165.541104 C267.409459,166.999399 267.877698,167.860019 268.814189,168.12299 C269.75068,168.385961 272.554031,168.517445 277.224324,168.517445 C282.283809,168.517445 286.017556,167.973581 288.425676,166.885837 C290.833796,165.798092 292.998639,163.162444 294.92027,158.978812 L297,158.978812 L293.606757,171.386207 L253.216216,171.386207 L253.216216,170.059405 Z M131.594595,236.721709 C131.594595,244.586096 133.160113,250.399082 136.291195,254.16084 C139.422278,257.922598 143.268275,259.803448 147.829301,259.803448 C152.291711,259.803448 156.10689,257.971293 159.274955,254.306927 C162.443019,250.64256 164.027027,244.78088 164.027027,236.721709 C164.027027,228.565147 162.424528,222.673032 159.219483,219.045187 C156.014437,215.417343 152.217748,213.603448 147.829301,213.603448 C143.292929,213.603448 139.453096,215.484299 136.309686,219.246057 C133.166276,223.007815 131.594595,228.832974 131.594595,236.721709 Z M122.675676,236.973064 C122.675676,229.005989 125.239661,222.617851 130.36771,217.808458 C135.07257,213.411993 140.860207,211.213793 147.730797,211.213793 C154.501812,211.213793 160.25211,213.387703 164.981863,217.735589 C170.184592,222.520692 172.785917,228.93312 172.785917,236.973064 C172.785917,243.337009 171.130529,248.717133 167.819701,253.113598 C164.235046,257.850121 159.156861,260.83773 152.584993,262.076513 C155.671779,266.424398 159.405739,269.509165 163.786984,271.330904 C166.251435,272.351079 169.574659,273.104053 173.756757,273.58985 L173.756757,274.937931 L170.620199,274.937931 C166.487888,274.937931 162.822384,274.610023 159.623578,273.954196 C156.424771,273.29837 153.518505,272.302501 150.904694,270.966558 C148.290883,269.654906 145.870032,267.833193 143.64207,265.501366 C141.414107,263.169539 140.175676,261.94292 139.926743,261.82147 L138.955903,261.384255 C134.724019,259.465356 131.450581,257.279301 129.135491,254.826025 C124.828926,250.28382 122.675676,244.332893 122.675676,236.973064 Z M204.315443,212.010345 L204.315443,213.388195 C201.385431,213.581579 199.485918,214.058987 198.616847,214.820434 C197.747775,215.581882 197.313246,217.32835 197.313246,220.059891 L197.313246,243.80968 C197.313246,247.701522 197.859511,250.735179 198.952058,252.910743 C200.988168,256.875105 204.84927,258.857255 210.535479,258.857255 C216.767962,258.857255 220.951856,256.826759 223.087289,252.765707 C224.279158,250.493451 224.875084,246.988428 224.875084,242.250533 L224.875084,222.92437 C224.875084,218.88749 224.378479,216.355413 223.385255,215.328063 C222.39203,214.300714 220.504932,213.654097 217.723904,213.388195 L217.723904,212.010345 L235.378378,212.010345 L235.378378,213.388195 C232.423536,213.702443 230.492985,214.397405 229.586668,215.4731 C228.680351,216.548796 228.227199,219.032527 228.227199,222.92437 L228.227199,242.250533 C228.227199,247.375195 227.420216,251.375755 225.806227,254.252335 C222.826554,259.546207 217.16526,262.193103 208.822176,262.193103 C200.578414,262.193103 194.96678,259.582466 191.987107,254.361112 C190.373118,251.557052 189.566135,247.858649 189.566135,243.265791 L189.566135,220.059891 C189.566135,217.352523 189.137813,215.618141 188.281157,214.856693 C187.424501,214.095246 185.556026,213.605752 182.675676,213.388195 L182.675676,212.010345 L204.315443,212.010345 Z M277.540541,242.27931 L268.564813,221.568966 L259.702703,242.27931 L277.540541,242.27931 Z M244.297297,261.396552 L244.297297,260.050096 C246.258915,259.831751 247.730107,259.103945 248.710916,257.866655 C249.691725,256.629365 251.373973,253.269326 253.757712,247.786434 L269.661637,211.213793 L271.151466,211.213793 L290.146786,253.463382 C291.413147,256.277609 292.42498,258.01828 293.182313,258.685445 C293.939647,259.352611 295.212196,259.80749 297,260.050096 L297,261.396552 L277.594977,261.396552 L277.594977,260.050096 C279.829731,259.856012 281.269885,259.619475 281.915481,259.340478 C282.561077,259.061481 282.88387,258.37613 282.88387,257.284404 C282.88387,256.920495 282.759719,256.2776 282.511412,255.355698 C282.263106,254.433795 281.915483,253.463387 281.468532,252.444442 L278.302645,245.275477 L258.338936,245.275477 C256.352487,250.151854 255.166844,253.129795 254.781969,254.209391 C254.397095,255.288987 254.20466,256.144159 254.20466,256.774934 C254.20466,258.036485 254.726095,258.909852 255.768981,259.395064 C256.414577,259.686191 257.631258,259.904533 259.419062,260.050096 L259.419062,261.396552 L244.297297,261.396552 Z M121.864865,350.780168 C124.996222,350.46478 127.005685,349.767299 127.893314,348.687703 C128.780943,347.608108 129.224751,345.10324 129.224751,341.173026 L129.224751,308.312235 L128.189189,307.111343 C127.079653,305.825532 126.136561,305.03101 125.359886,304.727752 C124.583211,304.424495 123.418215,304.248609 121.864865,304.200088 L121.864865,302.817241 L134.846373,302.817241 L164.027027,338.69846 L164.027027,313.770838 C164.027027,309.6708 163.410627,307.002177 162.177809,305.764887 C161.36415,304.964288 159.564262,304.442693 156.778094,304.200088 L156.778094,302.817241 L174.567568,302.817241 L174.567568,304.200088 C171.682774,304.491214 169.759607,305.182631 168.798009,306.274357 C167.836411,307.366083 167.355619,309.864885 167.355619,313.770838 L167.355619,353 L166.061166,353 L132.553343,312.133257 L132.553343,341.173026 C132.553343,345.248804 133.157415,347.905298 134.365576,349.142587 C135.15458,349.943186 136.917483,350.489041 139.654339,350.780168 L139.654339,352.126623 L121.864865,352.126623 L121.864865,350.780168 Z M192.405405,327.528606 C192.405405,335.392993 193.970923,341.205978 197.102006,344.967736 C200.233089,348.729494 204.079086,350.610345 208.640112,350.610345 C213.102522,350.610345 216.917701,348.778189 220.085765,345.113823 C223.25383,341.449457 224.837838,335.587776 224.837838,327.528606 C224.837838,319.372043 223.235339,313.479928 220.030294,309.852084 C216.825248,306.22424 213.028559,304.410345 208.640112,304.410345 C204.10374,304.410345 200.263907,306.291196 197.120497,310.052954 C193.977087,313.814711 192.405405,319.639871 192.405405,327.528606 Z M184.297297,327.13039 C184.297297,319.117855 186.827985,312.693267 191.889435,307.856432 C196.533193,303.43488 202.245666,301.224138 209.027027,301.224138 C215.832958,301.224138 221.557716,303.447094 226.201474,307.893074 C231.238354,312.705481 233.756757,319.117855 233.756757,327.13039 C233.756757,335.265067 231.15236,341.738512 225.943489,346.550919 C221.275161,350.850328 215.636397,353 209.027027,353 C201.950825,353 196.078647,350.618261 191.410319,345.854711 C186.668281,340.993448 184.297297,334.75207 184.297297,327.13039 Z M244.297297,350.780168 C247.428655,350.46478 249.438118,349.767299 250.325747,348.687703 C251.213376,347.608108 251.657183,345.10324 251.657183,341.173026 L251.657183,308.312235 L250.621622,307.111343 C249.512085,305.825532 248.568994,305.03101 247.792319,304.727752 C247.015643,304.424495 245.850648,304.248609 244.297297,304.200088 L244.297297,302.817241 L257.278805,302.817241 L286.459459,338.69846 L286.459459,313.770838 C286.459459,309.6708 285.84306,307.002177 284.610242,305.764887 C283.796582,304.964288 281.996695,304.442693 279.210526,304.200088 L279.210526,302.817241 L297,302.817241 L297,304.200088 C294.115206,304.491214 292.192039,305.182631 291.230441,306.274357 C290.268843,307.366083 289.788051,309.864885 289.788051,313.770838 L289.788051,353 L288.493599,353 L254.985775,312.133257 L254.985775,341.173026 C254.985775,345.248804 255.589847,347.905298 256.798009,349.142587 C257.587012,349.943186 259.349915,350.489041 262.086771,350.780168 L262.086771,352.126623 L244.297297,352.126623 L244.297297,350.780168 Z" id="SINEQUANON" stroke="#F5F4F4" stroke-width="2" fill="#D1C6A7" fill-rule="nonzero"></path>
            <path d="M81.3755562,394.866008 L79.1300734,389.695346 L76.9130144,394.866008 L81.3755562,394.866008 Z M73,399.688293 L73,399.349083 C73.4989987,399.294076 73.8732421,399.110721 74.1227414,398.799013 C74.3722408,398.487305 74.8001731,397.640816 75.4065512,396.25952 L79.4522102,387.045839 L79.8311946,387.045839 L84.6632463,397.689704 C84.9853846,398.398687 85.2427757,398.837211 85.4354271,399.005289 C85.6280785,399.173367 85.9517911,399.287964 86.4065747,399.349083 L86.4065747,399.688293 L81.4703023,399.688293 L81.4703023,399.349083 C82.0387818,399.300188 82.4051298,399.240597 82.5693572,399.17031 C82.7335846,399.100023 82.8156971,398.927364 82.8156971,398.652327 C82.8156971,398.560648 82.7841154,398.398685 82.720951,398.166432 C82.6577866,397.934178 82.5693578,397.689705 82.4556619,397.433004 L81.6503199,395.626939 L76.5719284,395.626939 C76.0666133,396.855436 75.7650078,397.605664 75.667103,397.877645 C75.5691982,398.149625 75.5202466,398.365067 75.5202466,398.523977 C75.5202466,398.841798 75.6528898,399.061824 75.9181802,399.184062 C76.0824076,399.257405 76.3919085,399.312412 76.8466921,399.349083 L76.8466921,399.688293 L73,399.688293 Z M97.6061967,387.265867 L97.6061967,387.614245 C97.2208939,387.626469 96.9461329,387.660084 96.7819055,387.715092 C96.4913493,387.818994 96.3460734,388.008461 96.3460734,388.283498 C96.3460734,388.405736 96.3634433,388.524917 96.3981837,388.641044 C96.4329242,388.75717 96.485034,388.90691 96.5545148,389.090268 L99.3589997,396.149506 L101.424465,390.850494 L100.505428,388.586037 C100.334884,388.170426 100.079072,387.892337 99.7379842,387.751763 C99.5358581,387.666196 99.2295154,387.620357 98.8189469,387.614245 L98.8189469,387.265867 L104.011034,387.265867 L104.011034,387.614245 C103.524668,387.620357 103.189902,387.653972 103.006725,387.715092 C102.716169,387.818994 102.570893,388.032909 102.570893,388.356841 C102.570893,388.466855 102.583526,388.563117 102.608791,388.645628 C102.634057,388.728139 102.697221,388.897742 102.798284,389.154443 L105.602768,396.195346 L108.028269,389.823695 C108.167231,389.463092 108.261976,389.14222 108.312507,388.861072 C108.344089,388.702162 108.35988,388.573813 108.35988,388.476023 C108.35988,388.127643 108.189339,387.886225 107.848251,387.751763 C107.658758,387.672308 107.374523,387.626469 106.995536,387.614245 L106.995536,387.265867 L110.842228,387.265867 L110.842228,387.614245 C110.494824,387.663141 110.229538,387.739539 110.046361,387.843441 C109.717906,388.020687 109.471569,388.326279 109.307341,388.760226 L107.241876,394.343441 L106.436534,396.497884 L105.271157,399.908322 L104.977444,399.908322 L104.191051,397.735543 L101.879246,391.959803 L98.8947438,399.908322 L98.6010308,399.908322 L97.208263,396.002821 L95.5407314,391.611425 C94.8522396,389.802295 94.3737765,388.691469 94.1053279,388.278914 C93.8368792,387.866359 93.4184214,387.644805 92.8499419,387.614245 L92.8499419,387.265867 L97.6061967,387.265867 Z M112.59061,399.349083 C113.304368,399.27574 113.76704,399.151975 113.97864,398.977786 C114.190241,398.803596 114.29604,398.362016 114.29604,397.653032 L114.29604,389.301128 C114.29604,388.634928 114.19182,388.19946 113.983378,387.994711 C113.774935,387.789961 113.310684,387.663141 112.59061,387.614245 L112.59061,387.265867 L122.898987,387.265867 L122.965309,389.961213 L122.472629,389.961213 C122.308402,389.129991 122.062064,388.59215 121.73361,388.347673 C121.405155,388.103196 120.672459,387.980959 119.5355,387.980959 L116.901558,387.980959 C116.617318,387.980959 116.44204,388.02527 116.375717,388.113893 C116.309394,388.202516 116.276234,388.369063 116.276234,388.61354 L116.276234,392.803244 L119.260736,392.803244 C120.08819,392.803244 120.615604,392.684063 120.842996,392.445698 C121.070388,392.207333 121.253562,391.724498 121.392524,390.997179 L121.847305,390.997179 L121.847305,395.342736 L121.392524,395.342736 C121.247246,394.615417 121.060913,394.13411 120.833522,393.898801 C120.60613,393.663492 120.081873,393.545839 119.260736,393.545839 L116.276234,393.545839 L116.276234,398.193935 C116.276234,398.566763 116.397823,398.786789 116.641006,398.85402 C116.884189,398.921251 117.612148,398.954866 118.824904,398.954866 C120.138723,398.954866 121.108282,398.815822 121.73361,398.537729 C122.358937,398.259637 122.921092,397.585807 123.42009,396.51622 L123.960143,396.51622 L123.079004,399.688293 L112.59061,399.688293 L112.59061,399.349083 Z M131.289071,399.009873 C132.280752,399.009873 133.111351,398.823462 133.780893,398.450635 C134.450436,398.077807 134.785202,397.362723 134.785202,396.30536 C134.785202,395.254109 134.393589,394.535968 133.61035,394.150917 C132.827112,393.765865 131.82913,393.573343 130.616373,393.573343 L130.052634,393.573343 C129.973679,393.573343 129.852089,393.570287 129.687861,393.564175 L129.687861,398.239774 C129.687861,398.563706 129.782607,398.773037 129.9721,398.867772 C130.161593,398.962506 130.600579,399.009873 131.289071,399.009873 Z M125.850644,399.349083 C126.633882,399.3063 127.140769,399.188647 127.371319,398.996121 C127.601869,398.803596 127.717142,398.355904 127.717142,397.653032 L127.717142,389.301128 C127.717142,388.610481 127.601869,388.165845 127.371319,387.967207 C127.140769,387.76857 126.633882,387.650917 125.850644,387.614245 L125.850644,387.265867 L131.289071,387.265867 C132.842915,387.265867 134.076181,387.507285 134.988906,387.990127 C135.901632,388.472969 136.357988,389.304178 136.357988,390.48378 C136.357988,391.370009 136.039012,392.042311 135.401052,392.500705 C135.041015,392.763518 134.500967,392.980488 133.780893,393.151622 C134.671511,393.359427 135.432631,393.706274 136.064275,394.192172 C136.695919,394.67807 137.011736,395.358012 137.011736,396.232017 C137.011736,397.698879 136.310622,398.707332 134.908372,399.257405 C134.169349,399.544665 133.259795,399.688293 132.179684,399.688293 L125.850644,399.688293 L125.850644,399.349083 Z M131.535411,392.82158 C132.186004,392.809356 132.726051,392.708511 133.155569,392.519041 C133.976706,392.152325 134.387269,391.495303 134.387269,390.547955 C134.387269,389.429473 133.913543,388.674661 132.966077,388.283498 C132.441812,388.069581 131.645953,387.962623 130.578475,387.962623 C130.174223,387.962623 129.924727,387.996238 129.829981,388.06347 C129.735234,388.130701 129.687861,388.314056 129.687861,388.61354 L129.687861,392.849083 L131.535411,392.82158 Z M148.149457,390.676305 C148.149457,389.527268 147.637833,388.738836 146.61457,388.311001 C146.06504,388.078748 145.370242,387.962623 144.530156,387.962623 C144.13222,387.962623 143.887462,388.000822 143.795873,388.077221 C143.704285,388.153621 143.658491,388.323224 143.658491,388.586037 L143.658491,393.481664 C144.005895,393.512224 144.233284,393.530559 144.340663,393.536671 C144.448043,393.542783 144.552262,393.545839 144.653326,393.545839 C145.543943,393.545839 146.245058,393.423603 146.756689,393.179126 C147.685206,392.732955 148.149457,391.89869 148.149457,390.676305 Z M140.067614,399.349083 C140.806637,399.281852 141.26773,399.139752 141.450907,398.922779 C141.634084,398.705805 141.725671,398.209219 141.725671,397.433004 L141.725671,389.301128 C141.725671,388.647152 141.62303,388.216268 141.417746,388.008463 C141.212462,387.800657 140.762422,387.669253 140.067614,387.614245 L140.067614,387.265867 L145.183904,387.265867 C146.826178,387.265867 148.08313,387.574515 148.954799,388.191819 C149.826468,388.809124 150.262295,389.621998 150.262295,390.630465 C150.262295,391.907858 149.779095,392.833801 148.81268,393.408322 C147.846265,393.982843 146.636685,394.270099 145.183904,394.270099 C144.975461,394.270099 144.708596,394.265515 144.383299,394.256347 C144.058002,394.247179 143.816402,394.242595 143.658491,394.242595 L143.658491,397.653032 C143.658491,398.362016 143.770606,398.80818 143.99484,398.991537 C144.219074,399.174895 144.719644,399.294076 145.496566,399.349083 L145.496566,399.688293 L140.067614,399.688293 L140.067614,399.349083 Z M158.718701,394.866008 L156.473219,389.695346 L154.25616,394.866008 L158.718701,394.866008 Z M150.343145,399.688293 L150.343145,399.349083 C150.842144,399.294076 151.216387,399.110721 151.465887,398.799013 C151.715386,398.487305 152.143318,397.640816 152.749697,396.25952 L156.795355,387.045839 L157.17434,387.045839 L162.006392,397.689704 C162.32853,398.398687 162.585921,398.837211 162.778572,399.005289 C162.971224,399.173367 163.294936,399.287964 163.74972,399.349083 L163.74972,399.688293 L158.813448,399.688293 L158.813448,399.349083 C159.381927,399.300188 159.748275,399.240597 159.912502,399.17031 C160.07673,399.100023 160.158842,398.927364 160.158842,398.652327 C160.158842,398.560648 160.127261,398.398685 160.064096,398.166432 C160.000932,397.934178 159.912503,397.689705 159.798807,397.433004 L158.993465,395.626939 L153.915074,395.626939 C153.409759,396.855436 153.108153,397.605664 153.010248,397.877645 C152.912344,398.149625 152.863392,398.365067 152.863392,398.523977 C152.863392,398.841798 152.996035,399.061824 153.261326,399.184062 C153.425553,399.257405 153.735054,399.312412 154.189837,399.349083 L154.189837,399.688293 L150.343145,399.688293 Z M172.547212,387.045839 C173.248337,387.045839 173.9684,387.146684 174.707424,387.348378 C175.446447,387.550072 175.860167,387.650917 175.948598,387.650917 C176.131774,387.650917 176.305474,387.602022 176.469701,387.504231 C176.633929,387.406441 176.747623,387.253645 176.810787,387.045839 L177.218195,387.045839 L177.398213,391.263047 L176.952906,391.263047 C176.693932,390.425713 176.356008,389.750355 175.939123,389.236953 C175.143252,388.271269 174.072631,387.788434 172.72723,387.788434 C171.369195,387.788434 170.259098,388.30794 169.396904,389.346968 C168.53471,390.385995 168.10362,391.816164 168.10362,393.637518 C168.10362,395.312185 168.556817,396.649149 169.463226,397.648449 C170.369635,398.647748 171.517631,399.147391 172.907247,399.147391 C173.911561,399.147391 174.836906,398.915141 175.683308,398.450635 C176.169674,398.187822 176.703405,397.790553 177.284518,397.258815 L177.644553,397.607193 C177.215035,398.132819 176.681304,398.594262 176.043344,398.991537 C174.956916,399.663849 173.778918,400 172.509314,400 C170.424889,400 168.770007,399.355202 167.544618,398.065585 C166.413975,396.87376 165.848662,395.385528 165.848662,393.600846 C165.848662,391.773381 166.445557,390.23931 167.639364,388.99859 C168.896335,387.696749 170.532268,387.045839 172.547212,387.045839 Z M179.951937,399.349083 C180.741491,399.287964 181.231008,399.151976 181.420501,398.941114 C181.609994,398.730253 181.70474,398.227555 181.70474,397.433004 L181.70474,389.301128 C181.70474,388.622705 181.598941,388.184181 181.38734,387.985543 C181.175739,387.786905 180.697276,387.663141 179.951937,387.614245 L179.951937,387.265867 L185.485109,387.265867 L185.485109,387.614245 C184.727137,387.650917 184.23762,387.773154 184.016545,387.980959 C183.795469,388.188765 183.684933,388.628817 183.684933,389.301128 L183.684933,393.151622 C184.87874,392.167602 185.854616,391.330281 186.612588,390.639633 C187.970623,389.386689 188.64963,388.582982 188.64963,388.228491 C188.64963,387.977902 188.534356,387.812882 188.303806,387.733427 C188.073256,387.653972 187.746385,387.614245 187.323184,387.614245 L187.323184,387.265867 L192.401576,387.265867 L192.401576,387.568406 C191.782565,387.629525 191.294627,387.748706 190.937748,387.925952 C190.580869,388.103198 190.086615,388.491299 189.454972,389.090268 L185.769348,392.583216 L190.288737,397.304654 C191.128824,398.17866 191.700453,398.724141 192.003642,398.941114 C192.306831,399.158088 192.752133,399.300188 193.339562,399.367419 L193.339562,399.688293 L187.408456,399.688293 L187.408456,399.349083 C187.945353,399.330747 188.308543,399.289493 188.498036,399.225317 C188.687529,399.161142 188.782274,399.034322 188.782274,398.844852 C188.782274,398.740949 188.72069,398.582042 188.597519,398.368124 C188.474349,398.154207 188.280121,397.906677 188.014831,397.625529 L184.338682,393.720028 L183.684933,394.260931 L183.684933,397.653032 C183.684933,398.349792 183.79389,398.791372 184.011807,398.977786 C184.229725,399.164199 184.70503,399.287964 185.437736,399.349083 L185.437736,399.688293 L179.951937,399.688293 L179.951937,399.349083 Z M206.822565,399.009873 C207.814246,399.009873 208.644845,398.823462 209.314388,398.450635 C209.983931,398.077807 210.318697,397.362723 210.318697,396.30536 C210.318697,395.254109 209.927083,394.535968 209.143845,394.150917 C208.360607,393.765865 207.362624,393.573343 206.149868,393.573343 L205.586129,393.573343 C205.507173,393.573343 205.385583,393.570287 205.221356,393.564175 L205.221356,398.239774 C205.221356,398.563706 205.316101,398.773037 205.505594,398.867772 C205.695088,398.962506 206.134073,399.009873 206.822565,399.009873 Z M201.384139,399.349083 C202.167377,399.3063 202.674264,399.188647 202.904814,398.996121 C203.135364,398.803596 203.250637,398.355904 203.250637,397.653032 L203.250637,389.301128 C203.250637,388.610481 203.135364,388.165845 202.904814,387.967207 C202.674264,387.76857 202.167377,387.650917 201.384139,387.614245 L201.384139,387.265867 L206.822565,387.265867 C208.376409,387.265867 209.609676,387.507285 210.522401,387.990127 C211.435126,388.472969 211.891482,389.304178 211.891482,390.48378 C211.891482,391.370009 211.572507,392.042311 210.934547,392.500705 C210.57451,392.763518 210.034462,392.980488 209.314388,393.151622 C210.205006,393.359427 210.966125,393.706274 211.597769,394.192172 C212.229413,394.67807 212.54523,395.358012 212.54523,396.232017 C212.54523,397.698879 211.844116,398.707332 210.441867,399.257405 C209.702843,399.544665 208.79329,399.688293 207.713179,399.688293 L201.384139,399.688293 L201.384139,399.349083 Z M207.068905,392.82158 C207.719498,392.809356 208.259546,392.708511 208.689064,392.519041 C209.510201,392.152325 209.920763,391.495303 209.920763,390.547955 C209.920763,389.429473 209.447037,388.674661 208.499571,388.283498 C207.975307,388.069581 207.179448,387.962623 206.111969,387.962623 C205.707717,387.962623 205.458222,387.996238 205.363475,388.06347 C205.268729,388.130701 205.221356,388.314056 205.221356,388.61354 L205.221356,392.849083 L207.068905,392.82158 Z M218.064507,393.481664 C218.064507,395.455816 218.465595,396.915016 219.267783,397.859309 C220.069971,398.803601 221.05532,399.27574 222.223861,399.27574 C223.367137,399.27574 224.344591,398.815825 225.156254,397.89598 C225.967916,396.976136 226.373741,395.504712 226.373741,393.481664 C226.373741,391.434169 225.963179,389.955106 225.142042,389.044429 C224.320905,388.133752 223.348188,387.67842 222.223861,387.67842 C221.061637,387.67842 220.077866,388.150559 219.27252,389.094852 C218.467174,390.039144 218.064507,391.501401 218.064507,393.481664 Z M215.866397,393.481664 C215.866397,391.476953 216.516981,389.869541 217.818167,388.659379 C219.011974,387.553121 220.480524,387 222.223861,387 C223.973515,387 225.445223,387.556177 226.63903,388.668547 C227.9339,389.872597 228.581326,391.476953 228.581326,393.481664 C228.581326,395.516935 227.911793,397.136571 226.572708,398.340621 C225.372585,399.416319 223.922984,399.954161 222.223861,399.954161 C220.404727,399.954161 218.895121,399.358257 217.694997,398.166432 C216.475925,396.950158 215.866397,395.388585 215.866397,393.481664 Z M230.907658,399.349083 C231.697213,399.294076 232.208837,399.179479 232.442545,399.005289 C232.676254,398.831099 232.793106,398.380352 232.793106,397.653032 L232.793106,389.301128 C232.793106,388.610481 232.676254,388.165845 232.442545,387.967207 C232.208837,387.76857 231.697213,387.650917 230.907658,387.614245 L230.907658,387.265867 L236.649273,387.265867 L236.649273,387.614245 C235.859718,387.650917 235.348094,387.76857 235.114386,387.967207 C234.880677,388.165845 234.763825,388.610481 234.763825,389.301128 L234.763825,397.653032 C234.763825,398.380352 234.880677,398.831099 235.114386,399.005289 C235.348094,399.179479 235.859718,399.294076 236.649273,399.349083 L236.649273,399.688293 L230.907658,399.688293 L230.907658,399.349083 Z M238.568197,399.349083 C239.281955,399.27574 239.744627,399.151975 239.956228,398.977786 C240.167828,398.803596 240.273627,398.362016 240.273627,397.653032 L240.273627,389.301128 C240.273627,388.634928 240.169408,388.19946 239.960965,387.994711 C239.752523,387.789961 239.288271,387.663141 238.568197,387.614245 L238.568197,387.265867 L244.053997,387.265867 L244.053997,387.614245 C243.340239,387.650917 242.861776,387.763986 242.618593,387.953456 C242.375411,388.142925 242.253821,388.549362 242.253821,389.172779 L242.253821,398.193935 C242.253821,398.401741 242.29014,398.565232 242.362779,398.684415 C242.435418,398.803597 242.594906,398.878467 242.841247,398.909027 C242.986525,398.927363 243.139696,398.939586 243.300765,398.945698 C243.461835,398.95181 243.76344,398.954866 244.205591,398.954866 C245.929979,398.954866 247.095344,398.81735 247.701722,398.542313 C248.3081,398.267276 248.89552,397.564416 249.464,396.433709 L249.95668,396.433709 L249.009219,399.688293 L238.568197,399.688293 L238.568197,399.349083 Z M251.714536,399.349083 C252.428294,399.27574 252.890966,399.151975 253.102566,398.977786 C253.314167,398.803596 253.419966,398.362016 253.419966,397.653032 L253.419966,389.301128 C253.419966,388.634928 253.315746,388.19946 253.107304,387.994711 C252.898861,387.789961 252.43461,387.663141 251.714536,387.614245 L251.714536,387.265867 L262.022913,387.265867 L262.089235,389.961213 L261.596555,389.961213 C261.432328,389.129991 261.18599,388.59215 260.857536,388.347673 C260.529081,388.103196 259.796385,387.980959 258.659426,387.980959 L256.025484,387.980959 C255.741244,387.980959 255.565966,388.02527 255.499643,388.113893 C255.43332,388.202516 255.40016,388.369063 255.40016,388.61354 L255.40016,392.803244 L258.384662,392.803244 C259.212116,392.803244 259.73953,392.684063 259.966922,392.445698 C260.194314,392.207333 260.377488,391.724498 260.51645,390.997179 L260.971231,390.997179 L260.971231,395.342736 L260.51645,395.342736 C260.371172,394.615417 260.184839,394.13411 259.957448,393.898801 C259.730056,393.663492 259.205799,393.545839 258.384662,393.545839 L255.40016,393.545839 L255.40016,398.193935 C255.40016,398.566763 255.521749,398.786789 255.764932,398.85402 C256.008115,398.921251 256.736074,398.954866 257.94883,398.954866 C259.262649,398.954866 260.232208,398.815822 260.857536,398.537729 C261.482863,398.259637 262.045018,397.585807 262.544016,396.51622 L263.084069,396.51622 L262.20293,399.688293 L251.714536,399.688293 L251.714536,399.349083 Z M268.499125,393.261636 C269.895058,393.212741 270.893041,393.072169 271.493102,392.839915 C272.522682,392.430416 273.037464,391.660325 273.037464,390.529619 C273.037464,389.441696 272.576371,388.699109 271.654171,388.301834 C271.161489,388.087916 270.507747,387.980959 269.692926,387.980959 C269.143396,387.980959 268.807051,388.019158 268.68388,388.095557 C268.56071,388.171956 268.499125,388.350727 268.499125,388.631876 L268.499125,393.261636 Z M264.860875,399.349083 C265.606214,399.281852 266.070466,399.14128 266.253643,398.927362 C266.436819,398.713445 266.528406,398.215331 266.528406,397.433004 L266.528406,389.301128 C266.528406,388.64104 266.425766,388.208628 266.220481,388.003879 C266.015197,387.799129 265.561999,387.669253 264.860875,387.614245 L264.860875,387.265867 L270.232979,387.265867 C271.350989,387.265867 272.28265,387.403384 273.027989,387.67842 C274.442872,388.197934 275.150302,389.154436 275.150302,390.547955 C275.150302,391.483079 274.836064,392.20122 274.207579,392.702398 C273.579093,393.203576 272.724807,393.533615 271.644696,393.692525 L275.642982,398.450635 C275.889323,398.744007 276.135661,398.957921 276.382002,399.092384 C276.628343,399.226846 276.94416,399.312412 277.329463,399.349083 L277.329463,399.688293 L274.202841,399.688293 L269.579231,393.912553 L268.499125,393.958392 L268.499125,397.653032 C268.499125,398.349792 268.608082,398.791372 268.825999,398.977786 C269.043917,399.164199 269.519221,399.287964 270.251928,399.349083 L270.251928,399.688293 L264.860875,399.688293 L264.860875,399.349083 Z M287.273383,390.676305 C287.273383,389.527268 286.761759,388.738836 285.738496,388.311001 C285.188966,388.078748 284.494168,387.962623 283.654082,387.962623 C283.256146,387.962623 283.011388,388.000822 282.919799,388.077221 C282.828211,388.153621 282.782417,388.323224 282.782417,388.586037 L282.782417,393.481664 C283.129822,393.512224 283.35721,393.530559 283.464589,393.536671 C283.571969,393.542783 283.676189,393.545839 283.777252,393.545839 C284.667869,393.545839 285.368984,393.423603 285.880615,393.179126 C286.809132,392.732955 287.273383,391.89869 287.273383,390.676305 Z M279.19154,399.349083 C279.930563,399.281852 280.391656,399.139752 280.574833,398.922779 C280.75801,398.705805 280.849597,398.209219 280.849597,397.433004 L280.849597,389.301128 C280.849597,388.647152 280.746956,388.216268 280.541672,388.008463 C280.336388,387.800657 279.886348,387.669253 279.19154,387.614245 L279.19154,387.265867 L284.30783,387.265867 C285.950104,387.265867 287.207056,387.574515 288.078725,388.191819 C288.950394,388.809124 289.386221,389.621998 289.386221,390.630465 C289.386221,391.907858 288.903021,392.833801 287.936606,393.408322 C286.970191,393.982843 285.760611,394.270099 284.30783,394.270099 C284.099387,394.270099 283.832522,394.265515 283.507225,394.256347 C283.181929,394.247179 282.940328,394.242595 282.782417,394.242595 L282.782417,397.653032 C282.782417,398.362016 282.894532,398.80818 283.118766,398.991537 C283.343,399.174895 283.84357,399.294076 284.620492,399.349083 L284.620492,399.688293 L279.19154,399.688293 L279.19154,399.349083 Z M291.181976,399.349083 C291.895734,399.27574 292.358406,399.151975 292.570006,398.977786 C292.781607,398.803596 292.887406,398.362016 292.887406,397.653032 L292.887406,389.301128 C292.887406,388.634928 292.783186,388.19946 292.574744,387.994711 C292.366301,387.789961 291.90205,387.663141 291.181976,387.614245 L291.181976,387.265867 L296.667776,387.265867 L296.667776,387.614245 C295.954018,387.650917 295.475555,387.763986 295.232372,387.953456 C294.989189,388.142925 294.8676,388.549362 294.8676,389.172779 L294.8676,398.193935 C294.8676,398.401741 294.903919,398.565232 294.976558,398.684415 C295.049197,398.803597 295.208684,398.878467 295.455026,398.909027 C295.600304,398.927363 295.753475,398.939586 295.914544,398.945698 C296.075613,398.95181 296.377219,398.954866 296.81937,398.954866 C298.543757,398.954866 299.709123,398.81735 300.315501,398.542313 C300.921879,398.267276 301.509299,397.564416 302.077779,396.433709 L302.570458,396.433709 L301.622997,399.688293 L291.181976,399.688293 L291.181976,399.349083 Z M312.770193,394.866008 L310.52471,389.695346 L308.307651,394.866008 L312.770193,394.866008 Z M304.394637,399.688293 L304.394637,399.349083 C304.893636,399.294076 305.267879,399.110721 305.517378,398.799013 C305.766878,398.487305 306.19481,397.640816 306.801188,396.25952 L310.846847,387.045839 L311.225832,387.045839 L316.057883,397.689704 C316.380022,398.398687 316.637413,398.837211 316.830064,399.005289 C317.022715,399.173367 317.346428,399.287964 317.801212,399.349083 L317.801212,399.688293 L312.864939,399.688293 L312.864939,399.349083 C313.433419,399.300188 313.799767,399.240597 313.963994,399.17031 C314.128222,399.100023 314.210334,398.927364 314.210334,398.652327 C314.210334,398.560648 314.178752,398.398685 314.115588,398.166432 C314.052424,397.934178 313.963995,397.689705 313.850299,397.433004 L313.044957,395.626939 L307.966565,395.626939 C307.46125,396.855436 307.159645,397.605664 307.06174,397.877645 C306.963835,398.149625 306.914883,398.365067 306.914883,398.523977 C306.914883,398.841798 307.047527,399.061824 307.312817,399.184062 C307.477045,399.257405 307.786545,399.312412 308.241329,399.349083 L308.241329,399.688293 L304.394637,399.688293 Z M317.645196,387.265867 L328.607321,387.265867 L328.711542,390.456276 L328.247286,390.456276 C328.019894,389.453921 327.730922,388.801482 327.380359,388.498942 C327.029797,388.196402 326.292364,388.045134 325.168038,388.045134 L324.087932,388.045134 L324.087932,397.653032 C324.087932,398.380352 324.204784,398.831099 324.438493,399.005289 C324.672201,399.179479 325.183825,399.294076 325.97338,399.349083 L325.97338,399.688293 L320.317037,399.688293 L320.317037,399.349083 C321.138174,399.287964 321.649798,399.15656 321.851924,398.954866 C322.05405,398.753172 322.155111,398.24589 322.155111,397.433004 L322.155111,388.045134 L321.075006,388.045134 C320.001211,388.045134 319.270094,388.194874 318.881633,388.494358 C318.493172,388.793843 318.201041,389.447809 318.005232,390.456276 L317.531501,390.456276 L317.645196,387.265867 Z M330.630467,399.349083 C331.344224,399.27574 331.806897,399.151975 332.018497,398.977786 C332.230098,398.803596 332.335897,398.362016 332.335897,397.653032 L332.335897,389.301128 C332.335897,388.634928 332.231677,388.19946 332.023235,387.994711 C331.814792,387.789961 331.350541,387.663141 330.630467,387.614245 L330.630467,387.265867 L340.938844,387.265867 L341.005166,389.961213 L340.512486,389.961213 C340.348259,389.129991 340.101921,388.59215 339.773466,388.347673 C339.445012,388.103196 338.712316,387.980959 337.575357,387.980959 L334.941415,387.980959 C334.657175,387.980959 334.481896,388.02527 334.415574,388.113893 C334.349251,388.202516 334.31609,388.369063 334.31609,388.61354 L334.31609,392.803244 L337.300593,392.803244 C338.128046,392.803244 338.655461,392.684063 338.882853,392.445698 C339.110245,392.207333 339.293419,391.724498 339.43238,390.997179 L339.887162,390.997179 L339.887162,395.342736 L339.43238,395.342736 C339.287102,394.615417 339.10077,394.13411 338.873378,393.898801 C338.645987,393.663492 338.12173,393.545839 337.300593,393.545839 L334.31609,393.545839 L334.31609,398.193935 C334.31609,398.566763 334.43768,398.786789 334.680863,398.85402 C334.924046,398.921251 335.652005,398.954866 336.864761,398.954866 C338.17858,398.954866 339.148139,398.815822 339.773466,398.537729 C340.398794,398.259637 340.960948,397.585807 341.459947,396.51622 L342,396.51622 L341.118861,399.688293 L330.630467,399.688293 L330.630467,399.349083 Z" id="AWEBPACKBOILERPLATE" stroke="#B19E6A" fill-opacity="0.25" fill="#000000" fill-rule="nonzero"></path>
        </g>
    </g>
</svg>